<svg width="70" height="37" viewBox="0 0 70 37" fill="none" xmlns="http://www.w3.org/2000/svg">
<path d="M2.09109 34.6279C2.09109 34.7279 2.17109 34.8179 2.28109 34.8179H6.28109C6.39109 34.8179 6.47109 34.7279 6.47109 34.6279V34.0779C6.47109 33.9779 6.39109 33.8879 6.28109 33.8879H3.12109V31.7379H5.79109C5.89109 31.7379 5.98109 31.6579 5.98109 31.5479V30.9879C5.98109 30.8879 5.89109 30.7979 5.79109 30.7979H3.12109V28.7579H6.28109C6.39109 28.7579 6.47109 28.6679 6.47109 28.5679V28.0079C6.47109 27.9079 6.39109 27.8179 6.28109 27.8179H2.28109C2.17109 27.8179 2.09109 27.9079 2.09109 28.0079V34.6279ZM10.5898 34.1279C10.7498 34.2779 11.5198 34.9179 12.7398 34.9179C14.0398 34.9179 14.9698 34.0679 14.9698 33.0279C14.9698 31.8079 13.9798 31.2579 12.8198 30.7879C11.9898 30.4479 11.5498 30.0979 11.5498 29.5279C11.5498 29.1579 11.8398 28.6279 12.6798 28.6279C13.2598 28.6279 13.9598 29.0879 14.0298 29.1279C14.1698 29.2179 14.2998 29.1579 14.3798 29.0279C14.4598 28.9079 14.5498 28.7679 14.6298 28.6479C14.7298 28.4979 14.6498 28.3579 14.5698 28.3079C14.4698 28.2379 13.7198 27.7179 12.7198 27.7179C11.1298 27.7179 10.5298 28.7879 10.5298 29.5679C10.5298 30.7279 11.3298 31.2579 12.3498 31.6879C13.3398 32.0979 13.8598 32.4779 13.8598 33.0779C13.8598 33.5879 13.4198 34.0079 12.7298 34.0079C11.9598 34.0079 11.1898 33.3679 11.1298 33.3179C11.0198 33.2279 10.8798 33.2679 10.7898 33.3979C10.6998 33.5279 10.6198 33.6779 10.5298 33.8079C10.4298 33.9779 10.4998 34.0479 10.5898 34.1279ZM20.3109 34.6279C20.3109 34.7279 20.4009 34.8179 20.5009 34.8179H21.1609C21.2609 34.8179 21.3509 34.7279 21.3509 34.6279V28.7579H22.9809C23.0909 28.7579 23.1709 28.6679 23.1709 28.5679V28.0079C23.1709 27.9079 23.0909 27.8179 22.9809 27.8179H18.6809C18.5709 27.8179 18.4909 27.9079 18.4909 28.0079V28.5679C18.4909 28.6679 18.5709 28.7579 18.6809 28.7579H20.3109V34.6279ZM27.2532 34.6279C27.2532 34.7279 27.3332 34.8179 27.4432 34.8179H31.4432C31.5532 34.8179 31.6332 34.7279 31.6332 34.6279V34.0779C31.6332 33.9779 31.5532 33.8879 31.4432 33.8879H28.2832V31.7379H30.9532C31.0532 31.7379 31.1432 31.6579 31.1432 31.5479V30.9879C31.1432 30.8879 31.0532 30.7979 30.9532 30.7979H28.2832V28.7579H31.4432C31.5532 28.7579 31.6332 28.6679 31.6332 28.5679V28.0079C31.6332 27.9079 31.5532 27.8179 31.4432 27.8179H27.4432C27.3332 27.8179 27.2532 27.9079 27.2532 28.0079V34.6279ZM28.7332 27.0779L30.4132 26.3579C30.4932 26.3179 30.5332 26.2179 30.4732 26.1179L30.2432 25.6779C30.1932 25.5879 30.0432 25.6079 29.9832 25.6479L28.4132 26.5579C28.3632 26.5879 28.3132 26.6679 28.3532 26.7479L28.4932 27.0279C28.5332 27.1179 28.6032 27.1379 28.7332 27.0779ZM37.1019 34.6279C37.1019 34.7279 37.1919 34.8179 37.2919 34.8179H37.9519C38.0519 34.8179 38.1419 34.7279 38.1419 34.6279V28.7579H39.7719C39.8819 28.7579 39.9619 28.6679 39.9619 28.5679V28.0079C39.9619 27.9079 39.8819 27.8179 39.7719 27.8179H35.4719C35.3619 27.8179 35.2819 27.9079 35.2819 28.0079V28.5679C35.2819 28.6679 35.3619 28.7579 35.4719 28.7579H37.1019V34.6279ZM44.0442 34.6279C44.0442 34.7279 44.1342 34.8179 44.2342 34.8179H44.8942C44.9942 34.8179 45.0842 34.7279 45.0842 34.6279V28.0079C45.0842 27.9079 44.9942 27.8179 44.8942 27.8179H44.2342C44.1342 27.8179 44.0442 27.9079 44.0442 28.0079V34.6279ZM49.5127 31.3279C49.5127 33.3279 51.1227 34.9179 53.1227 34.9179C54.0127 34.9179 54.8727 34.6079 55.5527 33.9479C55.6227 33.8779 55.6427 33.7479 55.5627 33.6779L55.1027 33.2279C55.0427 33.1779 54.9527 33.1679 54.8627 33.2379C54.3827 33.6079 53.8727 33.8979 53.1427 33.8979C51.7127 33.8979 50.6227 32.7079 50.6227 31.3079C50.6227 29.9079 51.7027 28.7079 53.1327 28.7079C53.7527 28.7079 54.3927 28.9679 54.8627 29.3779C54.9527 29.4679 55.0427 29.4679 55.1127 29.3779L55.5527 28.9279C55.6327 28.8479 55.6327 28.7279 55.5427 28.6479C54.8627 28.0579 54.1327 27.7179 53.1227 27.7179C51.1227 27.7179 49.5127 29.3279 49.5127 31.3279ZM59.2156 34.8179H59.8456C59.9656 34.8179 60.0456 34.7379 60.0756 34.6679C60.2756 34.2079 60.4856 33.7579 60.6856 33.2979H63.9556L64.5756 34.6679C64.6156 34.7579 64.6856 34.8179 64.8056 34.8179H65.4356C65.5856 34.8179 65.6656 34.6879 65.6056 34.5579L62.5556 27.8279C62.5256 27.7679 62.4356 27.7179 62.3856 27.7179H62.2856C62.2356 27.7179 62.1456 27.7679 62.1156 27.8279L59.0456 34.5579C58.9856 34.6879 59.0656 34.8179 59.2156 34.8179ZM61.0756 32.4379L62.2956 29.6979H62.3456L63.5756 32.4379H61.0756Z" fill="white"/>
<g clip-path="url(#clip0_1179_3791)">
<path d="M39.9845 19.7102H34.0788C32.2065 19.7102 30.6822 18.2242 30.6822 16.4019V0.15625H28.176V16.4019C28.176 19.5751 30.8237 22.1563 34.0788 22.1563H39.9845V19.7131V19.7102Z" fill="white"/>
<path d="M54.2993 19.7102H48.3935C46.5213 19.7102 44.9969 18.2242 44.9969 16.4019V0.15625H42.4907V16.4019C42.4907 19.5751 45.1384 22.1563 48.3935 22.1563H54.2993V19.7131V19.7102Z" fill="white"/>
<path d="M59.2792 12.7572V14.867V22.1563H61.747L61.7411 14.867V12.7572C61.747 11.4264 62.1539 10.1445 62.9146 9.05225L69.1211 0.15625H66.1314L60.8949 7.65534C60.7564 7.85366 60.6296 8.05487 60.5087 8.26182C60.3878 8.05487 60.261 7.85366 60.1224 7.65534L54.8889 0.15625H51.8992L58.1086 9.05225C58.8723 10.1445 59.2762 11.4264 59.2792 12.7572Z" fill="white"/>
<path d="M20.5101 0.15625H18.0039V22.1563H20.5101V0.15625Z" fill="white"/>
<path d="M12.9296 19.7102H7.02388C5.15162 19.7102 3.62727 18.2242 3.62727 16.4019V0.15625H1.12109V16.4019C1.12109 19.5751 3.7688 22.1563 7.02388 22.1563H12.9296V19.7131V19.7102Z" fill="white"/>
</g>
<defs>
<clipPath id="clip0_1179_3791">
<rect width="68" height="22" fill="white" transform="translate(1.12109 0.15625)"/>
</clipPath>
</defs>
</svg>
