<svg width="65" height="36" viewBox="0 0 65 36" fill="none" xmlns="http://www.w3.org/2000/svg">
<path d="M0.919423 32.42C0.919423 32.5145 0.995058 32.5996 1.09906 32.5996H4.88079C4.98479 32.5996 5.06043 32.5145 5.06043 32.42V31.9C5.06043 31.8054 4.98479 31.7204 4.88079 31.7204H1.89322V29.6877H4.41753C4.51207 29.6877 4.59716 29.612 4.59716 29.508V28.9786C4.59716 28.8841 4.51207 28.799 4.41753 28.799H1.89322V26.8703H4.88079C4.98479 26.8703 5.06043 26.7852 5.06043 26.6906V26.1612C5.06043 26.0667 4.98479 25.9816 4.88079 25.9816H1.09906C0.995058 25.9816 0.919423 26.0667 0.919423 26.1612V32.42ZM8.95436 31.9473C9.10563 32.0891 9.83361 32.6942 10.987 32.6942C12.2161 32.6942 13.0954 31.8905 13.0954 30.9073C13.0954 29.7539 12.1594 29.2339 11.0627 28.7895C10.278 28.4681 9.86198 28.1372 9.86198 27.5983C9.86198 27.2484 10.1362 26.7474 10.9303 26.7474C11.4787 26.7474 12.1405 27.1823 12.2067 27.2201C12.339 27.3052 12.4619 27.2484 12.5376 27.1255C12.6132 27.0121 12.6983 26.8797 12.7739 26.7663C12.8685 26.6245 12.7928 26.4921 12.7172 26.4448C12.6226 26.3787 11.9136 25.887 10.9681 25.887C9.4649 25.887 8.89763 26.8986 8.89763 27.6361C8.89763 28.7328 9.65398 29.2339 10.6183 29.6404C11.5543 30.028 12.0459 30.3873 12.0459 30.9546C12.0459 31.4367 11.6299 31.8338 10.9776 31.8338C10.2496 31.8338 9.52162 31.2287 9.4649 31.1815C9.3609 31.0964 9.22854 31.1342 9.14345 31.2571C9.05836 31.38 8.98272 31.5218 8.89763 31.6447C8.80309 31.8054 8.86927 31.8716 8.95436 31.9473ZM18.145 32.42C18.145 32.5145 18.2301 32.5996 18.3247 32.5996H18.9486C19.0432 32.5996 19.1283 32.5145 19.1283 32.42V26.8703H20.6693C20.7733 26.8703 20.849 26.7852 20.849 26.6906V26.1612C20.849 26.0667 20.7733 25.9816 20.6693 25.9816H16.604C16.5 25.9816 16.4243 26.0667 16.4243 26.1612V26.6906C16.4243 26.7852 16.5 26.8703 16.604 26.8703H18.145V32.42ZM24.7085 32.42C24.7085 32.5145 24.7842 32.5996 24.8882 32.5996H28.6699C28.7739 32.5996 28.8496 32.5145 28.8496 32.42V31.9C28.8496 31.8054 28.7739 31.7204 28.6699 31.7204H25.6823V29.6877H28.2067C28.3012 29.6877 28.3863 29.612 28.3863 29.508V28.9786C28.3863 28.8841 28.3012 28.799 28.2067 28.799H25.6823V26.8703H28.6699C28.7739 26.8703 28.8496 26.7852 28.8496 26.6906V26.1612C28.8496 26.0667 28.7739 25.9816 28.6699 25.9816H24.8882C24.7842 25.9816 24.7085 26.0667 24.7085 26.1612V32.42ZM26.1078 25.2819L27.6961 24.6012C27.7718 24.5634 27.8096 24.4689 27.7528 24.3743L27.5354 23.9583C27.4881 23.8732 27.3463 23.8922 27.2896 23.93L25.8053 24.7903C25.758 24.8187 25.7107 24.8943 25.7485 24.97L25.8809 25.2347C25.9187 25.3198 25.9849 25.3387 26.1078 25.2819ZM34.0198 32.42C34.0198 32.5145 34.1049 32.5996 34.1995 32.5996H34.8234C34.918 32.5996 35.0031 32.5145 35.0031 32.42V26.8703H36.5441C36.6481 26.8703 36.7238 26.7852 36.7238 26.6906V26.1612C36.7238 26.0667 36.6481 25.9816 36.5441 25.9816H32.4788C32.3748 25.9816 32.2991 26.0667 32.2991 26.1612V26.6906C32.2991 26.7852 32.3748 26.8703 32.4788 26.8703H34.0198V32.42ZM40.5834 32.42C40.5834 32.5145 40.6684 32.5996 40.763 32.5996H41.387C41.4815 32.5996 41.5666 32.5145 41.5666 32.42V26.1612C41.5666 26.0667 41.4815 25.9816 41.387 25.9816H40.763C40.6684 25.9816 40.5834 26.0667 40.5834 26.1612V32.42ZM45.7535 29.3C45.7535 31.1909 47.2756 32.6942 49.1665 32.6942C50.0079 32.6942 50.821 32.4011 51.4639 31.7771C51.5301 31.7109 51.549 31.588 51.4734 31.5218L51.0385 31.0964C50.9817 31.0491 50.8966 31.0396 50.8116 31.1058C50.3577 31.4556 49.8756 31.7298 49.1854 31.7298C47.8334 31.7298 46.8029 30.6047 46.8029 29.2811C46.8029 27.9575 47.824 26.823 49.176 26.823C49.7621 26.823 50.3672 27.0688 50.8116 27.4564C50.8966 27.5415 50.9817 27.5415 51.0479 27.4564L51.4639 27.031C51.5395 26.9554 51.5395 26.8419 51.4545 26.7663C50.8116 26.2085 50.1214 25.887 49.1665 25.887C47.2756 25.887 45.7535 27.4092 45.7535 29.3ZM54.9269 32.5996H55.5225C55.636 32.5996 55.7116 32.524 55.74 32.4578C55.9291 32.0229 56.1276 31.5974 56.3167 31.1625H59.4083L59.9945 32.4578C60.0323 32.5429 60.0985 32.5996 60.2119 32.5996H60.8075C60.9493 32.5996 61.025 32.4767 60.9683 32.3538L58.0847 25.991C58.0563 25.9343 57.9712 25.887 57.924 25.887H57.8294C57.7821 25.887 57.697 25.9343 57.6687 25.991L54.7662 32.3538C54.7095 32.4767 54.7851 32.5996 54.9269 32.5996ZM56.6854 30.3495L57.8389 27.759H57.8861L59.049 30.3495H56.6854Z" fill="black"/>
<g clip-path="url(#clip0_1179_1801)">
<path d="M36.9711 18.8259H31.3876C29.6175 18.8259 28.1764 17.4209 28.1764 15.698V0.338867H25.8069V15.698C25.8069 18.6981 28.3102 21.1384 31.3876 21.1384H36.9711V18.8286V18.8259Z" fill="black"/>
<path d="M50.5045 18.8259H44.921C43.1509 18.8259 41.7097 17.4209 41.7097 15.698V0.338867H39.3403V15.698C39.3403 18.6981 41.8435 21.1384 44.921 21.1384H50.5045V18.8286V18.8259Z" fill="black"/>
<path d="M55.2124 12.2523V14.2469V21.1384H57.5456L57.54 14.2469V12.2523C57.5456 10.9941 57.9303 9.78209 58.6495 8.74945L64.5173 0.338867H61.6907L56.74 7.42876C56.609 7.61627 56.4891 7.80649 56.3748 8.00215C56.2605 7.80649 56.1407 7.61627 56.0097 7.42876L51.0617 0.338867H48.2351L54.1057 8.74945C54.8277 9.78209 55.2096 10.9941 55.2124 12.2523Z" fill="black"/>
<path d="M18.5595 0.338867H16.1901V21.1384H18.5595V0.338867Z" fill="black"/>
<path d="M11.3927 18.8259H5.80919C4.03909 18.8259 2.59792 17.4209 2.59792 15.698V0.338867H0.228493V15.698C0.228493 18.6981 2.73172 21.1384 5.80919 21.1384H11.3927V18.8286V18.8259Z" fill="black"/>
</g>
<defs>
<clipPath id="clip0_1179_1801">
<rect width="64.2895" height="20.7996" fill="white" transform="translate(0.228973 0.338867)"/>
</clipPath>
</defs>
</svg>
