<svg width="29" height="29" viewBox="0 0 29 29" fill="none" xmlns="http://www.w3.org/2000/svg">
<g id="Group 14987">
<path id="Vector" d="M20.8438 20.8438H7.90703L4.74648 3.46641C4.70951 3.2583 4.60095 3.06967 4.4396 2.93314C4.27824 2.79661 4.07424 2.72077 3.86289 2.71875H1.8125" stroke="black" stroke-width="2.14815" stroke-linecap="round" stroke-linejoin="round"/>
<path id="Vector_2" d="M9.0625 25.375C10.3138 25.375 11.3281 24.3606 11.3281 23.1094C11.3281 21.8581 10.3138 20.8438 9.0625 20.8438C7.81123 20.8438 6.79688 21.8581 6.79688 23.1094C6.79688 24.3606 7.81123 25.375 9.0625 25.375Z" stroke="black" stroke-width="2.14815" stroke-linecap="round" stroke-linejoin="round"/>
<path id="Vector_3" d="M20.8438 25.375C22.095 25.375 23.1094 24.3606 23.1094 23.1094C23.1094 21.8581 22.095 20.8438 20.8438 20.8438C19.5925 20.8438 18.5781 21.8581 18.5781 23.1094C18.5781 24.3606 19.5925 25.375 20.8438 25.375Z" stroke="black" stroke-width="2.14815" stroke-linecap="round" stroke-linejoin="round"/>
<path id="Vector_4" d="M7.08008 16.3125H21.3082C21.7318 16.3138 22.1424 16.1657 22.4676 15.8943C22.7929 15.6229 23.0121 15.2455 23.0867 14.8285L24.4688 7.25H5.4375" stroke="black" stroke-width="2.14815" stroke-linecap="round" stroke-linejoin="round"/>
</g>
</svg>
