<svg width="33" height="33" viewBox="0 0 33 33" fill="none" xmlns="http://www.w3.org/2000/svg">
<g id="Group 3656">
<g id="Ellipse 21">
<path id="Vector" d="M16.5368 31.1697C24.7792 31.1697 31.461 24.4879 31.461 16.2455C31.461 8.00303 24.7792 1.32123 16.5368 1.32123C8.29439 1.32123 1.61259 8.00303 1.61259 16.2455C1.61259 24.4879 8.29439 31.1697 16.5368 31.1697Z" stroke="white" stroke-width="2"/>
</g>
<path id="Icon awesome-facebook-f" d="M20.9468 17.3713L21.4826 13.8791H18.132V11.613C18.132 10.6578 18.6001 9.72634 20.1006 9.72634H21.6238V6.75429C20.7295 6.6095 19.8258 6.53032 18.9199 6.5174C16.1606 6.5174 14.3569 8.18986 14.3569 11.2178V13.8795H11.2891V17.3718H14.3569V25.8137H18.132V17.3713H20.9468Z" fill="white"/>
</g>
</svg>
