<svg width="18" height="18" viewBox="0 0 18 18" fill="none" xmlns="http://www.w3.org/2000/svg">
<g id="Group 3715">
<path id="Vector" d="M11.2496 16.2936V12.0554C11.2496 11.6657 10.9134 11.349 10.4997 11.349H7.50034C7.08668 11.349 6.7505 11.6657 6.7505 12.0554V16.2936C6.7505 16.6833 6.41431 17 6.00065 17H1.50156C1.08789 17 0.751709 16.6833 0.751709 16.2936V8.12557C0.755458 7.92778 0.84294 7.74059 0.99541 7.60403L8.49389 1.18542C8.78008 0.938192 9.22 0.938192 9.50619 1.18542L17.0047 7.60403C17.1571 7.73941 17.2446 7.92778 17.2484 8.12557V16.2936C17.2484 16.6833 16.9122 17 16.4985 17H11.9994C11.5858 17 11.2496 16.6833 11.2496 16.2936Z" stroke="black" stroke-width="1.5" stroke-linecap="round" stroke-linejoin="round"/>
</g>
</svg>
