<svg width="33" height="33" viewBox="0 0 33 33" fill="none" xmlns="http://www.w3.org/2000/svg">
<g id="Group 3660">
<g id="Ellipse 23">
<path id="Vector" d="M16.7932 31.17C25.0356 31.17 31.7174 24.4882 31.7174 16.2458C31.7174 8.0034 25.0356 1.32159 16.7932 1.32159C8.55079 1.32159 1.86899 8.0034 1.86899 16.2458C1.86899 24.4882 8.55079 31.17 16.7932 31.17Z" stroke="white" stroke-width="2"/>
</g>
<path id="Icon awesome-instagram" d="M16.7098 12.033C15.8925 12.033 15.0936 12.2753 14.414 12.7294C13.7345 13.1835 13.2048 13.8288 12.892 14.5839C12.5793 15.339 12.4974 16.1699 12.6569 16.9715C12.8163 17.7731 13.2099 18.5094 13.7878 19.0873C14.3657 19.6652 15.1021 20.0588 15.9036 20.2183C16.7052 20.3777 17.5361 20.2959 18.2912 19.9831C19.0463 19.6703 19.6917 19.1407 20.1458 18.4611C20.5998 17.7816 20.8422 16.9826 20.8422 16.1653C20.8431 15.6224 20.7368 15.0847 20.5294 14.5829C20.322 14.0811 20.0177 13.6253 19.6338 13.2414C19.2499 12.8575 18.794 12.5531 18.2922 12.3457C17.7905 12.1384 17.2527 12.0321 16.7098 12.033ZM16.7098 18.8521C16.1784 18.8521 15.659 18.6946 15.2171 18.3993C14.7753 18.1041 14.4309 17.6845 14.2275 17.1935C14.0242 16.7026 13.971 16.1623 14.0746 15.6411C14.1783 15.1199 14.4342 14.6412 14.81 14.2654C15.1857 13.8897 15.6645 13.6338 16.1857 13.5301C16.7069 13.4264 17.2471 13.4796 17.738 13.683C18.229 13.8864 18.6486 14.2307 18.9439 14.6726C19.2391 15.1144 19.3967 15.6339 19.3967 16.1653C19.3954 16.8775 19.1119 17.5602 18.6083 18.0638C18.1047 18.5674 17.422 18.8509 16.7098 18.8521ZM21.975 11.8638C21.975 12.0544 21.9185 12.2407 21.8126 12.3992C21.7067 12.5577 21.5562 12.6812 21.3801 12.7541C21.204 12.8271 21.0103 12.8462 20.8233 12.809C20.6364 12.7718 20.4647 12.68 20.3299 12.5452C20.1951 12.4105 20.1033 12.2388 20.0662 12.0518C20.029 11.8649 20.0481 11.6711 20.121 11.495C20.1939 11.3189 20.3175 11.1684 20.4759 11.0626C20.6344 10.9567 20.8207 10.9001 21.0113 10.9001C21.138 10.8998 21.2635 10.9246 21.3807 10.9729C21.4978 11.0212 21.6042 11.0922 21.6938 11.1818C21.7834 11.2714 21.8544 11.3778 21.9027 11.495C21.9511 11.6121 21.9758 11.7376 21.9755 11.8643L21.975 11.8638ZM24.7111 12.8422C24.7376 11.5891 24.27 10.376 23.4092 9.46505C22.4668 8.52269 21.3245 8.228 20.032 8.16309C18.7026 8.0887 14.7142 8.0887 13.3829 8.16309C12.1307 8.13856 10.9185 8.60502 10.0058 9.46268C9.0601 10.4041 8.76872 11.5473 8.70381 12.8389C8.62848 14.1697 8.62848 18.1581 8.70381 19.4889C8.67728 20.742 9.14497 21.9551 10.0058 22.8661C10.9189 23.7234 12.1306 24.1905 13.3829 24.168C14.7138 24.2433 18.7021 24.2433 20.033 24.168C21.286 24.1945 22.4991 23.7269 23.4101 22.8661C24.3525 21.9237 24.6472 20.7814 24.7121 19.4889C24.7874 18.1581 24.7874 14.173 24.7121 12.8427L24.7111 12.8422ZM22.9932 20.9169C22.8564 21.2637 22.6498 21.5786 22.3862 21.8422C22.1226 22.1058 21.8077 22.3123 21.4609 22.4491C20.4001 22.8698 17.8824 22.7727 16.7098 22.7727C15.5372 22.7727 13.0143 22.8675 11.9587 22.4491C11.612 22.3123 11.297 22.1058 11.0334 21.8422C10.7699 21.5786 10.5633 21.2637 10.4265 20.9169C10.0058 19.8561 10.1029 17.3384 10.1029 16.1658C10.1029 14.9932 10.0081 12.4703 10.4265 11.4147C10.5633 11.0679 10.7699 10.753 11.0334 10.4894C11.297 10.2258 11.612 10.0192 11.9587 9.88245C13.02 9.46268 15.5377 9.55744 16.7098 9.55744C17.882 9.55744 20.4054 9.46268 21.4609 9.88103C21.8078 10.018 22.1229 10.2248 22.3865 10.4886C22.65 10.7524 22.8566 11.0677 22.9932 11.4147C23.4139 12.4755 23.3168 14.9932 23.3168 16.1658C23.3168 17.3384 23.4139 19.8594 22.9932 20.9169Z" fill="white"/>
</g>
</svg>
