<svg width="26" height="18" viewBox="0 0 26 18" fill="none" xmlns="http://www.w3.org/2000/svg">
<g id="Group 14989">
<path id="Vector" d="M13 17C14.6164 17 17.2935 16.9798 20.3646 15.2017C23.4357 13.4237 24.4358 11.2113 24.749 10.0698C24.7778 9.96693 24.7858 9.85935 24.7723 9.7534C24.7588 9.64746 24.7242 9.54529 24.6705 9.45297C24.6168 9.36065 24.5451 9.28005 24.4597 9.21593C24.3742 9.15182 24.2768 9.10551 24.1732 9.07973C23.4357 8.88779 22.1426 8.71605 20.4858 9.11004" stroke="#A0A0A0" stroke-width="1.5" stroke-linecap="round" stroke-linejoin="round"/>
<path id="Vector_2" d="M5.51415 9.09976C3.85737 8.71587 2.56427 8.88761 1.8268 9.07955C1.72315 9.10532 1.62574 9.15164 1.54032 9.21575C1.4549 9.27986 1.38322 9.36047 1.32952 9.45279C1.27582 9.54511 1.2412 9.64727 1.22771 9.75322C1.21422 9.85917 1.22212 9.96674 1.25097 10.0696C1.56414 11.2111 2.56427 13.4337 5.63538 15.2016C8.70648 16.9695 11.3836 16.9998 13 16.9998" stroke="#A0A0A0" stroke-width="1.5" stroke-linecap="round" stroke-linejoin="round"/>
<path id="Vector_3" d="M13 16.9996C13 16.9996 17.041 14.7973 17.041 8.91774C17.041 4.31108 14.5558 1.96734 13.4849 1.15916C13.3444 1.05577 13.1745 1 13 1C12.8256 1 12.6557 1.05577 12.5151 1.15916C11.4443 1.96734 8.95911 4.31108 8.95911 8.91774C8.95911 14.7973 13 16.9996 13 16.9996Z" stroke="#A0A0A0" stroke-width="1.5" stroke-linecap="round" stroke-linejoin="round"/>
<path id="Vector_4" d="M13 16.9986C14.2123 16.736 17.4753 14.8973 19.4352 11.503C21.395 8.10857 20.9101 5.41125 20.5262 4.22928C20.4675 4.03919 20.3391 3.87834 20.1667 3.77903C19.9943 3.67971 19.7907 3.64929 19.5968 3.69386C18.4369 3.95363 17.3518 4.47544 16.4247 5.21931" stroke="#A0A0A0" stroke-width="1.5" stroke-linecap="round" stroke-linejoin="round"/>
<path id="Vector_5" d="M9.57685 5.21931C8.64973 4.47544 7.56465 3.95363 6.40472 3.69386C6.21083 3.64929 6.00725 3.67971 5.83486 3.77903C5.66246 3.87834 5.53402 4.03919 5.47531 4.22928C5.09142 5.41125 4.60651 8.11868 6.56636 11.503C8.52621 14.8872 11.7893 16.736 13.0015 16.9986" stroke="#A0A0A0" stroke-width="1.5" stroke-linecap="round" stroke-linejoin="round"/>
</g>
</svg>
