<svg width="14" height="18" viewBox="0 0 14 18" fill="none" xmlns="http://www.w3.org/2000/svg">
<g id="Group 14990">
<path id="Vector" d="M6.99999 9.61546C8.35946 9.61546 9.46153 8.51339 9.46153 7.15392C9.46153 5.79445 8.35946 4.69238 6.99999 4.69238C5.64052 4.69238 4.53845 5.79445 4.53845 7.15392C4.53845 8.51339 5.64052 9.61546 6.99999 9.61546Z" stroke="#A0A0A0" stroke-width="1.5" stroke-linecap="round" stroke-linejoin="round"/>
<path id="Vector_2" d="M13.1538 7.15385C13.1538 12.6923 6.99998 17 6.99998 17C6.99998 17 0.84613 12.6923 0.84613 7.15385C0.84613 5.52174 1.49448 3.95649 2.64855 2.80242C3.80262 1.64835 5.36788 1 6.99998 1C8.63208 1 10.1973 1.64835 11.3514 2.80242C12.5055 3.95649 13.1538 5.52174 13.1538 7.15385V7.15385Z" stroke="#A0A0A0" stroke-width="1.5" stroke-linecap="round" stroke-linejoin="round"/>
</g>
</svg>
