<svg width="18" height="18" viewBox="0 0 18 18" fill="none" xmlns="http://www.w3.org/2000/svg">
<g id="promocoes icon">
<path id="Vector" d="M8.35361 1.0112L2.2325 2.23299L1.01071 8.3541C0.972274 8.55234 1.03397 8.75765 1.17759 8.90026L9.097 16.8197C9.32862 17.0563 9.7079 17.0604 9.94457 16.8298C9.94761 16.8268 9.95064 16.8237 9.95469 16.8197L16.8202 9.95416C17.0569 9.72255 17.0609 9.34327 16.8303 9.10659C16.8273 9.10356 16.8242 9.10053 16.8202 9.09648L8.89978 1.17808C8.75717 1.03446 8.55185 0.972763 8.35361 1.0112V1.0112Z" stroke="#A0A0A0" stroke-width="1.5" stroke-linecap="round" stroke-linejoin="round"/>
<path id="Vector_2" d="M5.41821 6.32886C5.92094 6.32886 6.32849 5.92131 6.32849 5.41858C6.32849 4.91585 5.92094 4.5083 5.41821 4.5083C4.91548 4.5083 4.50793 4.91585 4.50793 5.41858C4.50793 5.92131 4.91548 6.32886 5.41821 6.32886Z" fill="#A0A0A0"/>
</g>
</svg>
