<svg width="17" height="17" viewBox="0 0 17 17" fill="none" xmlns="http://www.w3.org/2000/svg">
<path d="M1.63013 12.4667C0.930682 11.2634 0.564764 9.89718 0.564764 8.50158C0.568002 1.51379 9.05211 -2.07956 14.1782 2.87352L14.1685 2.89961C15.6645 4.37673 16.5032 6.39839 16.5 8.5081C16.4968 14.5405 9.99443 18.3197 4.72262 15.4731L0.5 16.5752L1.63013 12.4667ZM5.15978 14.1557C9.5767 16.7545 15.1658 13.5753 15.1691 8.48527C15.1723 6.73099 14.4729 5.0517 13.2294 3.82566C11.9892 2.57679 10.3021 1.87899 8.55019 1.88552C3.33991 1.88552 0.179417 7.60487 2.92866 11.9808L3.08733 12.2319L2.41702 14.6611L4.91692 14.009L5.15654 14.1525L5.15978 14.1557ZM9.83576 12.1634C8.07417 11.5602 7.10918 11.1232 5.29903 8.75592C4.37937 7.45814 4.10736 6.23862 5.18245 5.05496C5.42855 4.79737 5.71028 4.7941 6.09563 4.82671C6.21868 4.82671 6.38383 4.7778 6.5425 5.16583C6.70765 5.55712 7.10595 6.53535 7.15776 6.63643C7.22252 6.74077 7.229 6.87446 7.17395 6.98533C6.80155 7.68965 6.39354 7.73856 6.58783 8.07442C6.88899 8.58636 7.26138 9.04938 7.6953 9.45372C8.16808 9.87435 8.70886 10.2102 9.29821 10.445C9.49574 10.5363 9.61232 10.5232 9.7289 10.3961C9.84547 10.2689 10.2276 9.81892 10.3571 9.62002C10.5449 9.33633 10.7004 9.43415 12.1673 10.1646L12.1737 10.1156C12.3745 10.207 12.504 10.2559 12.5526 10.3472C12.6077 10.6667 12.5656 10.9993 12.4328 11.296C12.2677 11.7656 11.4711 12.1862 11.0889 12.2482C10.9303 12.271 10.7716 12.284 10.6097 12.284C10.3474 12.284 10.0851 12.2449 9.83252 12.1634H9.83576Z" fill="black"/>
</svg>
