<svg width="32" height="32" viewBox="0 0 32 32" fill="none" xmlns="http://www.w3.org/2000/svg">
<path id="Vector" d="M31.0786 15.8511C31.0786 24.1011 24.3386 30.7911 16.0186 30.7911C13.3786 30.7911 10.8986 30.1211 8.7386 28.9311L0.4086 31.5811L3.1286 23.5611C1.7586 21.3111 0.9686 18.6711 0.9686 15.8511C0.9686 7.60113 7.7086 0.911133 16.0186 0.911133C24.3286 0.911133 31.0686 7.60113 31.0686 15.8511H31.0786ZM16.0186 3.29113C9.0386 3.29113 3.3586 8.93113 3.3586 15.8511C3.3586 18.6011 4.2586 21.1411 5.7686 23.2111L4.1886 27.8711L9.0486 26.3211C11.0486 27.6311 13.4386 28.4011 16.0086 28.4011C22.9886 28.4011 28.6686 22.7711 28.6686 15.8411C28.6686 8.92113 22.9886 3.28113 16.0086 3.28113L16.0186 3.29113ZM23.6186 19.2911C23.5286 19.1411 23.2786 19.0511 22.9086 18.8611C22.5386 18.6811 20.7286 17.7911 20.3886 17.6711C20.0486 17.5511 19.7986 17.4911 19.5586 17.8511C19.3186 18.2211 18.6086 19.0411 18.3886 19.2911C18.1686 19.5411 17.9586 19.5711 17.5886 19.3811C17.2186 19.1911 16.0286 18.8111 14.6186 17.5611C13.5186 16.5911 12.7786 15.3911 12.5686 15.0211C12.3486 14.6511 12.5486 14.4611 12.7286 14.2711C12.8886 14.1111 13.0986 13.8411 13.2786 13.6311C13.4686 13.4211 13.5286 13.2711 13.6486 13.0211C13.7686 12.7811 13.7086 12.5611 13.6186 12.3811C13.5286 12.2011 12.7886 10.4011 12.4786 9.66113C12.1686 8.93113 11.8686 9.05113 11.6486 9.05113C11.4286 9.05113 11.1886 9.02113 10.9386 9.02113C10.6886 9.02113 10.2886 9.11113 9.9586 9.48113C9.6286 9.85113 8.6686 10.7311 8.6686 12.5311C8.6686 14.3311 9.9886 16.0711 10.1786 16.3211C10.3686 16.5611 12.7286 20.3811 16.4886 21.8511C20.2386 23.3211 20.2386 22.8311 20.9186 22.7611C21.5986 22.7011 23.0986 21.8711 23.4086 21.0211C23.7186 20.1611 23.7186 19.4311 23.6286 19.2711L23.6186 19.2911Z" fill="white"/>
</svg>
